<svg width="62" height="25" viewBox="0 0 62 25" fill="none" xmlns="http://www.w3.org/2000/svg">
<path d="M19.4468 4.89454C15.5005 4.89454 12.3262 8.17707 12.3262 12.1923C12.3262 16.2369 15.5291 19.4901 19.4468 19.4901C23.3932 19.4901 26.5675 16.2076 26.5675 12.1923C26.5675 8.17707 23.3932 4.89454 19.4468 4.89454ZM19.4468 15.4162C17.7024 15.4162 16.3012 13.9801 16.3012 12.1923C16.3012 10.4045 17.7024 8.9684 19.4468 8.9684C21.1913 8.9684 22.5925 10.4045 22.5925 12.1923C22.5925 13.9801 21.1913 15.4162 19.4468 15.4162ZM2.46025 4.86523C1.37357 4.86523 0.487061 5.77379 0.487061 6.88751V17.4678C0.487061 18.5815 1.37357 19.4901 2.46025 19.4901C3.54694 19.4901 4.43344 18.5815 4.43344 17.4678V6.91682C4.46204 5.77379 3.57553 4.86523 2.46025 4.86523ZM40.6372 4.89454C36.6908 4.89454 33.5166 8.17707 33.5166 12.1923C33.5166 12.1923 33.5452 16.3541 33.5452 17.4678C33.5452 18.5815 34.4317 19.4901 35.5183 19.4901C36.605 19.4901 37.4915 18.5815 37.4915 17.4678C37.4915 16.3541 37.4915 12.1923 37.4915 12.1923C37.4915 10.4045 38.8928 8.9684 40.6372 8.9684C42.3816 8.9684 43.7829 10.4045 43.7829 12.1923C43.7829 12.1923 43.7829 16.3541 43.7829 17.4678C43.7829 18.5815 44.6694 19.4901 45.7561 19.4901C46.8427 19.4901 47.7292 18.5815 47.7292 17.4678C47.7292 16.3541 47.7292 12.1923 47.7292 12.1923C47.7578 8.17707 44.555 4.89454 40.6372 4.89454ZM29.9705 4.86523C28.8838 4.86523 27.9973 5.77379 27.9973 6.88751V17.4678C27.9973 18.5815 28.8838 19.4901 29.9705 19.4901C31.0572 19.4901 31.9437 18.5815 31.9437 17.4678V6.91682C31.9723 5.77379 31.0858 4.86523 29.9705 4.86523ZM59.2824 15.4162H55.336C56.4799 13.8922 59.1966 10.3166 60.8266 8.14777L56.7659 6.41858L49.4165 16.1489C49.4165 16.1782 49.3879 16.1782 49.3879 16.2076C49.1305 16.5593 48.9589 16.9989 48.9589 17.4678C48.9589 18.5815 49.8454 19.4901 50.9321 19.4901H59.2824C60.3691 19.4901 61.2556 18.5815 61.2556 17.4678C61.2556 16.3541 60.3977 15.4162 59.2824 15.4162Z" fill="#1C1C1C"/>
<path fill-rule="evenodd" clip-rule="evenodd" d="M19.4469 24.9997C14.6426 24.9997 10.4674 22.2154 8.40844 18.1416C7.49333 16.3831 5.9491 13.5402 5.9491 13.5402L9.00897 10.668C9.00897 10.668 11.2395 15.1814 11.9259 16.4417C13.3843 19.1674 16.2154 20.9845 19.4469 20.9845C21.5916 20.9845 23.0787 20.2225 23.9938 19.607C24.9089 18.9915 26.1385 19.2846 26.7391 20.2225C27.3396 21.1603 27.0537 22.4206 26.1386 23.0361C25.2234 23.6222 22.9643 24.9997 19.4469 24.9997Z" fill="#1C1C1C"/>
<path fill-rule="evenodd" clip-rule="evenodd" d="M29.9991 0C31.0858 0 31.9723 0.908558 31.9723 2.02227C31.9723 3.13599 31.0858 4.04455 29.9991 4.04455C28.9124 4.04455 28.0259 3.13599 28.0259 2.02227C28.0259 0.908558 28.8838 0 29.9991 0Z" fill="#1C1C1C"/>
<mask id="mask0_1526_2510" style="mask-type:alpha" maskUnits="userSpaceOnUse" x="5" y="10" width="23" height="15">
<path fill-rule="evenodd" clip-rule="evenodd" d="M19.4469 24.9997C14.6426 24.9997 10.4674 22.2154 8.40844 18.1416C7.49333 16.3831 5.9491 13.5402 5.9491 13.5402L9.00897 10.668C9.00897 10.668 11.2395 15.1814 11.9259 16.4417C13.3843 19.1674 16.2154 20.9845 19.4469 20.9845C21.5916 20.9845 23.0787 20.2225 23.9938 19.607C24.9089 18.9915 26.1385 19.2846 26.7391 20.2225C27.3396 21.1603 27.0537 22.4206 26.1386 23.0361C25.2234 23.6222 22.9643 24.9997 19.4469 24.9997Z" fill="#EF9341"/>
</mask>
<g mask="url(#mask0_1526_2510)">
<path fill-rule="evenodd" clip-rule="evenodd" d="M4.09032 18.7283C4.74805 17.8198 11.1824 9.08587 11.8401 8.20662C12.4978 7.29807 15.5005 18.4938 13.0984 20.604C10.6676 22.6849 3.404 19.6076 4.09032 18.7283Z" fill="#1C1C1C"/>
</g>
<mask id="mask1_1526_2510" style="mask-type:alpha" maskUnits="userSpaceOnUse" x="0" y="4" width="62" height="16">
<path d="M19.4468 4.89454C15.5005 4.89454 12.3262 8.17707 12.3262 12.1923C12.3262 16.2369 15.5291 19.4901 19.4468 19.4901C23.3932 19.4901 26.5675 16.2076 26.5675 12.1923C26.5675 8.17707 23.3932 4.89454 19.4468 4.89454ZM19.4468 15.4162C17.7024 15.4162 16.3012 13.9801 16.3012 12.1923C16.3012 10.4045 17.7024 8.9684 19.4468 8.9684C21.1913 8.9684 22.5925 10.4045 22.5925 12.1923C22.5925 13.9801 21.1913 15.4162 19.4468 15.4162ZM2.46025 4.86523C1.37357 4.86523 0.487061 5.77379 0.487061 6.88751V17.4678C0.487061 18.5815 1.37357 19.4901 2.46025 19.4901C3.54694 19.4901 4.43344 18.5815 4.43344 17.4678V6.91682C4.46204 5.77379 3.57553 4.86523 2.46025 4.86523ZM40.6372 4.89454C36.6908 4.89454 33.5165 8.17707 33.5165 12.1923C33.5165 12.1923 33.5451 16.3541 33.5451 17.4678C33.5451 18.5815 34.4317 19.4901 35.5183 19.4901C36.605 19.4901 37.4915 18.5815 37.4915 17.4678C37.4915 16.3541 37.4915 12.1923 37.4915 12.1923C37.4915 10.4045 38.8928 8.9684 40.6372 8.9684C42.3816 8.9684 43.7829 10.4045 43.7829 12.1923C43.7829 12.1923 43.7829 16.3541 43.7829 17.4678C43.7829 18.5815 44.6694 19.4901 45.756 19.4901C46.8427 19.4901 47.7292 18.5815 47.7292 17.4678C47.7292 16.3541 47.7292 12.1923 47.7292 12.1923C47.7578 8.17707 44.555 4.89454 40.6372 4.89454ZM29.9705 4.86523C28.8838 4.86523 27.9973 5.77379 27.9973 6.88751V17.4678C27.9973 18.5815 28.8838 19.4901 29.9705 19.4901C31.0572 19.4901 31.9437 18.5815 31.9437 17.4678V6.91682C31.9723 5.77379 31.0858 4.86523 29.9705 4.86523ZM59.2824 15.4162H55.336C56.4799 13.8922 59.1966 10.3166 60.8266 8.14777L56.7659 6.41858L49.4165 16.1489C49.4165 16.1782 49.3879 16.1782 49.3879 16.2076C49.1305 16.5593 48.9589 16.9989 48.9589 17.4678C48.9589 18.5815 49.8454 19.4901 50.9321 19.4901H59.2824C60.3691 19.4901 61.2556 18.5815 61.2556 17.4678C61.2556 16.3541 60.3977 15.4162 59.2824 15.4162Z" fill="#EF9341"/>
</mask>
<g mask="url(#mask1_1526_2510)">
<path fill-rule="evenodd" clip-rule="evenodd" d="M5.43433 8.2947C5.43433 8.2947 2.60323 -1.28912 0.487052 1.67102C-1.62912 4.63116 -0.99999 20.1939 -0.513841 20.1353C-0.0276929 20.0766 6.83558 11.4893 6.83558 11.4893L5.43433 8.2947Z" fill="#1C1C1C"/>
</g>
<path fill-rule="evenodd" clip-rule="evenodd" d="M11.8115 8.17728C12.4692 7.26873 12.2976 6.00847 11.4111 5.33438C10.5246 4.66029 9.29493 4.83614 8.6372 5.74469C7.97947 6.62394 1.57375 15.3578 0.916024 16.2664C0.258294 17.1749 0.429876 18.4352 1.28778 19.1093C2.17429 19.7834 3.40396 19.6075 4.06169 18.699C4.74802 17.8197 11.1537 9.08584 11.8115 8.17728Z" fill="#1C1C1C"/>
<mask id="mask2_1526_2510" style="mask-type:alpha" maskUnits="userSpaceOnUse" x="0" y="4" width="62" height="16">
<path d="M19.4468 4.89454C15.5005 4.89454 12.3262 8.17707 12.3262 12.1923C12.3262 16.2369 15.5291 19.4901 19.4468 19.4901C23.3932 19.4901 26.5675 16.2076 26.5675 12.1923C26.5675 8.17707 23.3932 4.89454 19.4468 4.89454ZM19.4468 15.4162C17.7024 15.4162 16.3012 13.9801 16.3012 12.1923C16.3012 10.4045 17.7024 8.9684 19.4468 8.9684C21.1913 8.9684 22.5925 10.4045 22.5925 12.1923C22.5925 13.9801 21.1913 15.4162 19.4468 15.4162ZM2.46025 4.86523C1.37357 4.86523 0.487061 5.77379 0.487061 6.88751V17.4678C0.487061 18.5815 1.37357 19.4901 2.46025 19.4901C3.54694 19.4901 4.43344 18.5815 4.43344 17.4678V6.91682C4.46204 5.77379 3.57553 4.86523 2.46025 4.86523ZM40.6372 4.89454C36.6908 4.89454 33.5165 8.17707 33.5165 12.1923C33.5165 12.1923 33.5451 16.3541 33.5451 17.4678C33.5451 18.5815 34.4317 19.4901 35.5183 19.4901C36.605 19.4901 37.4915 18.5815 37.4915 17.4678C37.4915 16.3541 37.4915 12.1923 37.4915 12.1923C37.4915 10.4045 38.8928 8.9684 40.6372 8.9684C42.3816 8.9684 43.7829 10.4045 43.7829 12.1923C43.7829 12.1923 43.7829 16.3541 43.7829 17.4678C43.7829 18.5815 44.6694 19.4901 45.756 19.4901C46.8427 19.4901 47.7292 18.5815 47.7292 17.4678C47.7292 16.3541 47.7292 12.1923 47.7292 12.1923C47.7578 8.17707 44.555 4.89454 40.6372 4.89454ZM29.9705 4.86523C28.8838 4.86523 27.9973 5.77379 27.9973 6.88751V17.4678C27.9973 18.5815 28.8838 19.4901 29.9705 19.4901C31.0572 19.4901 31.9437 18.5815 31.9437 17.4678V6.91682C31.9723 5.77379 31.0858 4.86523 29.9705 4.86523ZM59.2824 15.4162H55.336C56.4799 13.8922 59.1966 10.3166 60.8266 8.14777L56.7659 6.41858L49.4165 16.1489C49.4165 16.1782 49.3879 16.1782 49.3879 16.2076C49.1305 16.5593 48.9589 16.9989 48.9589 17.4678C48.9589 18.5815 49.8454 19.4901 50.9321 19.4901H59.2824C60.3691 19.4901 61.2556 18.5815 61.2556 17.4678C61.2556 16.3541 60.3977 15.4162 59.2824 15.4162Z" fill="#EF9341"/>
</mask>
<g mask="url(#mask2_1526_2510)">
<path fill-rule="evenodd" clip-rule="evenodd" d="M61.9419 5.86181C61.9419 5.86181 63.143 12.3683 54.4781 12.2803C45.8132 12.1924 54.2779 4.63086 54.2779 4.63086L61.9419 5.86181Z" fill="#1C1C1C"/>
</g>
<path fill-rule="evenodd" clip-rule="evenodd" d="M59.2824 8.93908C60.3691 8.93908 61.2556 8.03052 61.2556 6.91681C61.2556 5.80309 60.3691 4.89453 59.2824 4.89453C58.1957 4.89453 52.0473 4.89453 50.9321 4.89453C49.8454 4.89453 48.9589 5.80309 48.9589 6.91681C48.9589 8.03052 49.8454 8.93908 50.9321 8.93908C52.0473 8.93908 58.1957 8.93908 59.2824 8.93908Z" fill="#1C1C1C"/>
<mask id="mask3_1526_2510" style="mask-type:alpha" maskUnits="userSpaceOnUse" x="0" y="4" width="62" height="16">
<path d="M19.4468 4.89454C15.5005 4.89454 12.3262 8.17707 12.3262 12.1923C12.3262 16.2369 15.5291 19.4901 19.4468 19.4901C23.3932 19.4901 26.5675 16.2076 26.5675 12.1923C26.5675 8.17707 23.3932 4.89454 19.4468 4.89454ZM19.4468 15.4162C17.7024 15.4162 16.3012 13.9801 16.3012 12.1923C16.3012 10.4045 17.7024 8.9684 19.4468 8.9684C21.1913 8.9684 22.5925 10.4045 22.5925 12.1923C22.5925 13.9801 21.1913 15.4162 19.4468 15.4162ZM2.46025 4.86523C1.37357 4.86523 0.487061 5.77379 0.487061 6.88751V17.4678C0.487061 18.5815 1.37357 19.4901 2.46025 19.4901C3.54694 19.4901 4.43344 18.5815 4.43344 17.4678V6.91682C4.46204 5.77379 3.57553 4.86523 2.46025 4.86523ZM40.6372 4.89454C36.6908 4.89454 33.5166 8.17707 33.5166 12.1923C33.5166 12.1923 33.5452 16.3541 33.5452 17.4678C33.5452 18.5815 34.4317 19.4901 35.5183 19.4901C36.605 19.4901 37.4915 18.5815 37.4915 17.4678C37.4915 16.3541 37.4915 12.1923 37.4915 12.1923C37.4915 10.4045 38.8928 8.9684 40.6372 8.9684C42.3816 8.9684 43.7829 10.4045 43.7829 12.1923C43.7829 12.1923 43.7829 16.3541 43.7829 17.4678C43.7829 18.5815 44.6694 19.4901 45.7561 19.4901C46.8427 19.4901 47.7292 18.5815 47.7292 17.4678C47.7292 16.3541 47.7292 12.1923 47.7292 12.1923C47.7578 8.17707 44.555 4.89454 40.6372 4.89454ZM29.9705 4.86523C28.8838 4.86523 27.9973 5.77379 27.9973 6.88751V17.4678C27.9973 18.5815 28.8838 19.4901 29.9705 19.4901C31.0572 19.4901 31.9437 18.5815 31.9437 17.4678V6.91682C31.9723 5.77379 31.0858 4.86523 29.9705 4.86523ZM59.2824 15.4162H55.336C56.4799 13.8922 59.1966 10.3166 60.8266 8.14777L56.7659 6.41858L49.4165 16.1489C49.4165 16.1782 49.3879 16.1782 49.3879 16.2076C49.1305 16.5593 48.9589 16.9989 48.9589 17.4678C48.9589 18.5815 49.8454 19.4901 50.9321 19.4901H59.2824C60.3691 19.4901 61.2556 18.5815 61.2556 17.4678C61.2556 16.3541 60.3977 15.4162 59.2824 15.4162Z" fill="#EF9341"/>
</mask>
<g mask="url(#mask3_1526_2510)">
<path fill-rule="evenodd" clip-rule="evenodd" d="M56.3369 14.127L51.647 20.3989L61.7989 20.6627L63 14.3028L56.3369 14.127Z" fill="#1C1C1C"/>
</g>
</svg>
